<?xml version="1.0" standalone="no"?><!DOCTYPE svg PUBLIC "-//W3C//DTD SVG 1.1//EN" "http://www.w3.org/Graphics/SVG/1.1/DTD/svg11.dtd"><svg t="1710384937704" class="icon" viewBox="0 0 1024 1024" version="1.1" xmlns="http://www.w3.org/2000/svg" p-id="19763" xmlns:xlink="http://www.w3.org/1999/xlink" width="200" height="200"><path d="M842.666667 516.266667c-10.666667-59.733333-29.866667-110.933333-59.733334-153.6-25.6-34.133333-57.6-64-96-83.2-68.266667-36.266667-136.533333-40.533333-164.266666-40.533334h-12.8c-93.866667 12.8-151.466667 57.6-183.466667 91.733334-34.133333 38.4-46.933333 74.666667-46.933333 76.8-36.266667 142.933333 57.6 194.133333 117.333333 226.133333 21.333333 10.666667 40.533333 21.333333 49.066667 34.133333 36.266667 49.066667 19.2 106.666667 8.533333 153.6-4.266667 14.933333-8.533333 29.866667-10.666667 42.666667-6.4 44.8 2.133333 81.066667 25.6 106.666667 40.533333 51.2 113.066667 53.333333 134.4 53.333333 12.8 0 25.6-2.133333 34.133334-4.266667 51.2-10.666667 96-38.4 130.133333-81.066666 29.866667-36.266667 51.2-83.2 66.133333-138.666667 23.466667-100.266667 21.333333-213.333333 8.533334-283.733333z m-51.2 275.2c-12.8 49.066667-32 91.733333-57.6 121.6-27.733333 34.133333-64 57.6-104.533334 66.133333-8.533333 2.133333-17.066667 2.133333-27.733333 2.133333s-70.4-2.133333-100.266667-38.4c-14.933333-19.2-19.2-42.666667-14.933333-74.666666 2.133333-10.666667 4.266667-23.466667 8.533333-36.266667 12.8-49.066667 34.133333-121.6-14.933333-187.733333-14.933333-19.2-38.4-32-64-46.933334-61.866667-32-123.733333-66.133333-98.133333-177.066666 2.133333-4.266667 12.8-32 38.4-59.733334 27.733333-29.866667 76.8-68.266667 157.866666-78.933333h6.4c23.466667 0 83.2 4.266667 142.933334 36.266667 32 17.066667 59.733333 42.666667 81.066666 70.4 25.6 36.266667 44.8 81.066667 53.333334 134.4 14.933333 68.266667 17.066667 172.8-6.4 268.8zM226.133333 0c-85.333333 0-155.733333 70.4-155.733333 155.733333s70.4 155.733333 155.733333 155.733334 155.733333-70.4 155.733334-155.733334c2.133333-85.333333-68.266667-155.733333-155.733334-155.733333z m0 268.8c-61.866667 0-113.066667-51.2-113.066666-113.066667S164.266667 42.666667 226.133333 42.666667c64 0 115.2 51.2 115.2 113.066666 0 64-51.2 113.066667-115.2 113.066667z" fill="#151318" p-id="19764"></path><path d="M226.133333 268.8c-61.866667 0-113.066667-51.2-113.066666-113.066667S164.266667 42.666667 226.133333 42.666667c64 0 115.2 51.2 115.2 113.066666 0 64-51.2 113.066667-115.2 113.066667z" fill="#E84762" p-id="19765"></path><path d="M494.933333 4.266667c-42.666667 0-78.933333 36.266667-78.933333 78.933333s36.266667 78.933333 78.933333 78.933333 78.933333-36.266667 78.933334-78.933333S537.6 4.266667 494.933333 4.266667z m0 115.2c-19.2 0-36.266667-17.066667-36.266666-36.266667s17.066667-36.266667 36.266666-36.266667c19.2 0 36.266667 17.066667 36.266667 36.266667s-17.066667 36.266667-36.266667 36.266667z" fill="#151318" p-id="19766"></path><path d="M494.933333 119.466667c-19.2 0-36.266667-17.066667-36.266666-36.266667s17.066667-36.266667 36.266666-36.266667c19.2 0 36.266667 17.066667 36.266667 36.266667s-17.066667 36.266667-36.266667 36.266667z" fill="#E84762" p-id="19767"></path><path d="M704 23.466667c-42.666667 0-78.933333 36.266667-78.933333 78.933333S661.333333 181.333333 704 181.333333s78.933333-36.266667 78.933333-78.933333c0-44.8-34.133333-78.933333-78.933333-78.933333z m0 115.2c-19.2 0-36.266667-17.066667-36.266667-36.266667 0-19.2 17.066667-36.266667 36.266667-36.266667 19.2 0 36.266667 17.066667 36.266667 36.266667 0 19.2-17.066667 36.266667-36.266667 36.266667z" fill="#151318" p-id="19768"></path><path d="M704 138.666667c-19.2 0-36.266667-17.066667-36.266667-36.266667 0-19.2 17.066667-36.266667 36.266667-36.266667 19.2 0 36.266667 17.066667 36.266667 36.266667 0 19.2-17.066667 36.266667-36.266667 36.266667z" fill="#E84762" p-id="19769"></path><path d="M874.666667 117.333333c-42.666667 0-78.933333 36.266667-78.933334 78.933334s36.266667 78.933333 78.933334 78.933333 78.933333-36.266667 78.933333-78.933333c0-44.8-36.266667-78.933333-78.933333-78.933334z m0 115.2c-19.2 0-36.266667-17.066667-36.266667-36.266666 0-19.2 17.066667-36.266667 36.266667-36.266667 19.2 0 36.266667 17.066667 36.266666 36.266667 0 19.2-17.066667 36.266667-36.266666 36.266666z" fill="#151318" p-id="19770"></path><path d="M874.666667 232.533333c-19.2 0-36.266667-17.066667-36.266667-36.266666 0-19.2 17.066667-36.266667 36.266667-36.266667 19.2 0 36.266667 17.066667 36.266666 36.266667 0 19.2-17.066667 36.266667-36.266666 36.266666z" fill="#E84762" p-id="19771"></path></svg>