<?xml version="1.0" standalone="no"?><!DOCTYPE svg PUBLIC "-//W3C//DTD SVG 1.1//EN" "http://www.w3.org/Graphics/SVG/1.1/DTD/svg11.dtd"><svg t="1669192466519" class="icon" viewBox="0 0 1024 1024" version="1.1" xmlns="http://www.w3.org/2000/svg" p-id="9568" xmlns:xlink="http://www.w3.org/1999/xlink" width="200" height="200"><path d="M512 64c247.424 0 448 200.576 448 448s-200.576 448-448 448S64 759.424 64 512 264.576 64 512 64z m32 640h-96c0 35.36 21.472 64 48 64 26.496 0 48-28.64 48-64zM512 288c-16.32 0-29.536 12.736-29.536 28.448v17.056c-67.424 13.184-118.144 70.592-118.144 139.392v142.208h-14.816c-16.288 0-29.504 12.736-29.504 28.48 0 15.776 13.216 28.416 29.504 28.416h324.992c16.288 0 29.504-12.736 29.504-28.448 0-15.808-13.216-28.448-29.504-28.448h-14.816v-142.208c0-68.8-50.72-126.208-118.144-139.392V316.48C541.536 300.736 528.32 288 512 288z" p-id="9569"></path></svg>