<?xml version="1.0" standalone="no"?><!DOCTYPE svg PUBLIC "-//W3C//DTD SVG 1.1//EN" "http://www.w3.org/Graphics/SVG/1.1/DTD/svg11.dtd"><svg t="1669192470786" class="icon" viewBox="0 0 1024 1024" version="1.1" xmlns="http://www.w3.org/2000/svg" p-id="9702" xmlns:xlink="http://www.w3.org/1999/xlink" width="200" height="200"><path d="M512 64c247.424 0 448 200.576 448 448s-200.576 448-448 448S64 759.424 64 512 264.576 64 512 64z m211.488 264.512a34.944 34.944 0 0 0-49.856 4.224l-232.192 279.264-90.88-111.04-2.464-2.72a34.912 34.912 0 0 0-47.36-1.92 36.448 36.448 0 0 0-4.544 50.72l117.888 144 2.464 2.72a34.944 34.944 0 0 0 51.712-2.496l259.36-312 2.24-2.944a36.48 36.48 0 0 0-6.4-47.808z"  p-id="9703"></path></svg>